<?xml version="1.0" encoding="utf-8"?>
<!-- Generator: Adobe Illustrator 18.0.0, SVG Export Plug-In . SVG Version: 6.00 Build 0)  -->
<!DOCTYPE svg PUBLIC "-//W3C//DTD SVG 1.1//EN" "http://www.w3.org/Graphics/SVG/1.1/DTD/svg11.dtd">
<svg version="1.1" id="Layer_1" xmlns="http://www.w3.org/2000/svg" xmlns:xlink="http://www.w3.org/1999/xlink" x="0px" y="0px"
	 viewBox="0 0 33 28" enable-background="new 0 0 33 28" xml:space="preserve">
<rect y="25" fill="#8DC63F" width="9" height="3"/>
<rect y="20" fill="#8DC63F" width="9" height="3"/>
<rect y="15" fill="#8DC63F" width="9" height="3"/>
<rect y="10" fill="#8DC63F" width="9" height="3"/>
<rect x="12" y="25" fill="#8DC63F" width="9" height="3"/>
<rect x="12" y="20" fill="#8DC63F" width="9" height="3"/>
<rect x="12" y="15" fill="#8DC63F" width="9" height="3"/>
<rect x="24" y="20" fill="#8DC63F" width="9" height="3"/>
<rect x="24" y="15" fill="#8DC63F" width="9" height="3"/>
<rect x="12" y="10" fill="#8DC63F" width="9" height="3"/>
<rect x="12" y="5" fill="#8DC63F" width="9" height="3"/>
<rect x="12" fill="#8DC63F" width="9" height="3"/>
<rect x="24" y="25" fill="#8DC63F" width="9" height="3"/>
<g>
	<path fill="#8DC63F" d="M32.8,11.4c0.1,0.1,0.1,0.1,0.1,0.2c0,0.1-0.1,0.2-0.2,0.3c-1,0.9-2.1,1-2.7,1c-0.8,0-1.9-0.2-2.7-1
		C26.4,11,25.9,9.4,25.9,8h-1.2c-0.2,0-0.3-0.1-0.3-0.2c0,0,0-0.1,0-0.1l0.3-0.6c0.1-0.2,0.1-0.3,0.4-0.3h0.6V6h-0.9
		c-0.1,0-0.3,0-0.3-0.1c0,0,0-0.1,0-0.1l0.3-0.6C25,5,25,4.9,25.2,4.9h0.6C26,3.1,26.9,0,30,0c1.4,0,2.3,0.6,2.8,1.1l0.1,0.1
		C33,1.2,33,1.3,33,1.4c0,0,0,0.1,0,0.1l-0.6,1c0,0.1-0.1,0.1-0.2,0.1c-0.1,0-0.1,0-0.2-0.1l-0.1-0.1c-0.4-0.3-1.1-0.8-1.8-0.8
		c-1.9,0-2.1,2.4-2.2,3.2h3.2c0.1,0,0.3,0,0.3,0.2c0,0,0,0.1,0,0.2L31,5.9C30.9,6,30.9,6,30.7,6h-2.9v0.8h2.4c0.2,0,0.3,0.1,0.3,0.2
		c0,0,0,0.1,0,0.1l-0.3,0.6C30.1,8,30,8,29.9,8h-1.9v0.1c0,1.7,0.7,3.2,2.2,3.2c0.6,0,1.1-0.2,1.7-0.7c0.1,0,0.2-0.1,0.3-0.1
		c0.1,0,0.1,0,0.2,0.1L32.8,11.4z"/>
</g>
</svg>
