<?xml version="1.0" encoding="utf-8"?>
<!-- Generator: Adobe Illustrator 18.0.0, SVG Export Plug-In . SVG Version: 6.00 Build 0)  -->
<!DOCTYPE svg PUBLIC "-//W3C//DTD SVG 1.1//EN" "http://www.w3.org/Graphics/SVG/1.1/DTD/svg11.dtd">
<svg version="1.1" id="Layer_1" xmlns="http://www.w3.org/2000/svg" xmlns:xlink="http://www.w3.org/1999/xlink" x="0px" y="0px"
	 viewBox="0 0 37 25" enable-background="new 0 0 37 25" xml:space="preserve">
<circle fill="#8DC63F" cx="4" cy="23" r="2"/>
<circle fill="#8DC63F" cx="10" cy="23" r="2"/>
<circle fill="#8DC63F" cx="27" cy="23" r="2"/>
<circle fill="#8DC63F" cx="33" cy="23" r="2"/>
<path fill="#8DC63F" d="M22,1c0,0-2-1-4-1s-4,1-4,1v2h8V1z"/>
<path fill="#8DC63F" d="M34,5H3c0,0-3,2-3,7s3,7,3,7h31c0,0,3-2,3-7S34,5,34,5z M18,16c-1.7,0-3-1.3-3-3c0-1.7,3-5,3-5s3,3.3,3,5
	C21,14.7,19.7,16,18,16z"/>
</svg>
