<?xml version="1.0" encoding="utf-8"?>
<!-- Generator: Adobe Illustrator 18.0.0, SVG Export Plug-In . SVG Version: 6.00 Build 0)  -->
<!DOCTYPE svg PUBLIC "-//W3C//DTD SVG 1.1//EN" "http://www.w3.org/Graphics/SVG/1.1/DTD/svg11.dtd">
<svg version="1.1" id="Layer_1" xmlns="http://www.w3.org/2000/svg" xmlns:xlink="http://www.w3.org/1999/xlink" x="0px" y="0px"
	 viewBox="0 0 25 25" enable-background="new 0 0 25 25" xml:space="preserve">
<polygon fill="#8DC63F" points="25,7.2 25,0 17.8,0 14.8,3.1 19.8,3.1 12.5,10.4 5.2,3.1 10.2,3.1 7.2,0 0,0 0,7.2 3,10.2 3,5.2 
	10.3,12.5 3,19.8 3,14.8 0,17.8 0,25 7.2,25 10.2,21.9 5.2,21.9 12.5,14.6 19.8,21.9 14.8,21.9 17.8,25 25,25 25,17.8 22,14.8 
	22,19.8 14.7,12.5 22,5.2 22,10.2 "/>
</svg>
