<?xml version="1.0" encoding="utf-8"?>
<!-- Generator: Adobe Illustrator 18.0.0, SVG Export Plug-In . SVG Version: 6.00 Build 0)  -->
<!DOCTYPE svg PUBLIC "-//W3C//DTD SVG 1.1//EN" "http://www.w3.org/Graphics/SVG/1.1/DTD/svg11.dtd">
<svg version="1.1" id="Layer_1" xmlns="http://www.w3.org/2000/svg" xmlns:xlink="http://www.w3.org/1999/xlink" x="0px" y="0px"
	 viewBox="0 0 32 32" enable-background="new 0 0 32 32" xml:space="preserve">
<circle fill="#8DC63F" cx="16" cy="16" r="16"/>
<g>
	<path fill="#FFFFFF" d="M17.4,13.3L17.4,13.3c0.7,0,2.4,0.1,3,1.4c0.3,0.6,0.3,1.8-0.3,2.9c-0.9,1.5-2.9,2.3-5.4,2.3
		c-1.8,0-3.8-0.4-6.1-1.1c1.7-1.1,3.6-2.5,4.7-3.9C13.9,14.1,15.5,13.3,17.4,13.3 M17.4,11.3c-2.2,0-4.6,0.9-5.7,2.3
		C9.6,16.3,4,19.1,4,19.1c4.4,2,8,2.8,10.7,2.8c7.1,0,8.9-5.4,7.5-8.1C21.3,12,19.4,11.3,17.4,11.3L17.4,11.3z"/>
</g>
<path fill="none" stroke="#FFFFFF" stroke-width="2" stroke-miterlimit="10" d="M21.6,14.3c0,0,3-0.1,4.7-2.8"/>
</svg>
