<?xml version="1.0" encoding="utf-8"?>
<!-- Generator: Adobe Illustrator 18.0.0, SVG Export Plug-In . SVG Version: 6.00 Build 0)  -->
<!DOCTYPE svg PUBLIC "-//W3C//DTD SVG 1.1//EN" "http://www.w3.org/Graphics/SVG/1.1/DTD/svg11.dtd">
<svg version="1.1" id="Layer_1" xmlns="http://www.w3.org/2000/svg" xmlns:xlink="http://www.w3.org/1999/xlink" x="0px" y="0px"
	 viewBox="0 0 63.2 17.5" enable-background="new 0 0 63.2 17.5" xml:space="preserve">
<g>
	<path fill="#8DC63F" d="M0,11.1L2.4,0.2h8L9.8,2.6H4.7L4.3,4.3h5.1L8.8,6.8H3.8L3.3,8.6h5.2L8,11.1H0z"/>
	<path fill="#8DC63F" d="M10.9,7.4c0-0.2,0-0.6,0.1-0.7l1.4-6.5h2.9l-1.4,6.4c0,0.1,0,0.3,0,0.5c0,0.9,0.7,1.8,2.1,1.8
		c1.5,0,2.3-0.9,2.5-2.2l1.4-6.4h2.8l-1.4,6.5c-0.6,2.6-2,4.6-5.4,4.6C12.5,11.3,10.9,9.7,10.9,7.4z"/>
	<path fill="#8DC63F" d="M28.8,11.1l-1-3.7h-1.6l-0.8,3.7h-2.8L25,0.2h5c1.9,0,3.5,1.2,3.5,3.2c0,1.9-1.3,3.4-2.9,3.8l1.3,3.8H28.8z
		 M29,5c0.9,0,1.6-0.5,1.6-1.3c0-0.6-0.5-1-1.2-1h-2.1L26.8,5H29L29,5z"/>
	<path fill="#8DC63F" d="M34.2,6.3c0-3.5,2.7-6.3,6.4-6.3c3.1,0,5.5,2,5.5,4.9c0,3.5-2.7,6.3-6.4,6.3C36.6,11.3,34.2,9.3,34.2,6.3z
		 M43.2,5.1c0-1.6-1.1-2.6-2.8-2.6c-1.9,0-3.3,1.6-3.3,3.7c0,1.6,1.1,2.6,2.8,2.6C41.8,8.8,43.2,7.1,43.2,5.1z"/>
</g>
<g>
	<path fill="#8DC63F" d="M47.8,14.2l2.6-2.3c0.9,1.5,2.5,2.3,4.6,2.3c2,0,3.2-1.3,3.2-2.8c0-1.5-1.3-2.3-3.2-2.3
		c-1.3,0-2.2,0.3-3.1,1l-2.3-0.9l2-9.1h11.7l-0.7,3.2h-8.1l-0.9,4c0.9-0.7,1.9-1.1,3.4-1.1c2.8,0,5,1.7,5,4.8c0,3.5-2.9,6.4-7.1,6.4
		C51.6,17.5,49.2,16.3,47.8,14.2z"/>
</g>
</svg>
