<?xml version="1.0" encoding="utf-8"?>
<!-- Generator: Adobe Illustrator 18.0.0, SVG Export Plug-In . SVG Version: 6.00 Build 0)  -->
<!DOCTYPE svg PUBLIC "-//W3C//DTD SVG 1.1//EN" "http://www.w3.org/Graphics/SVG/1.1/DTD/svg11.dtd">
<svg version="1.1" id="Layer_1" xmlns="http://www.w3.org/2000/svg" xmlns:xlink="http://www.w3.org/1999/xlink" x="0px" y="0px"
	 viewBox="0 0 42 25" enable-background="new 0 0 42 25" xml:space="preserve">
<g>
	<path fill="#8DC63F" d="M42,7c-2.7,0-4.1-1.3-5.2-2.4c-1-0.9-1.7-1.6-3.2-1.6c-1.5,0-2.2,0.7-3.2,1.6C29.3,5.7,27.9,7,25.2,7
		c-2.7,0-4.1-1.3-5.2-2.4C19,3.7,18.3,3,16.8,3c-1.5,0-2.2,0.7-3.2,1.6C12.5,5.7,11.1,7,8.4,7C5.7,7,4.3,5.7,3.2,4.6
		C2.2,3.7,1.5,3,0,3V0c2.7,0,4.1,1.3,5.2,2.4C6.2,3.3,6.9,4,8.4,4c1.5,0,2.2-0.7,3.2-1.6C12.7,1.3,14.1,0,16.8,0
		c2.7,0,4.1,1.3,5.2,2.4C23,3.3,23.7,4,25.2,4c1.5,0,2.2-0.7,3.2-1.6C29.5,1.3,30.9,0,33.6,0c2.7,0,4.1,1.3,5.2,2.4
		C39.8,3.3,40.5,4,42,4V7z"/>
</g>
<g>
	<path fill="#8DC63F" d="M42,16c-2.7,0-4.1-1.3-5.2-2.4c-1-0.9-1.7-1.6-3.2-1.6c-1.5,0-2.2,0.7-3.2,1.6c-1.1,1.1-2.5,2.4-5.2,2.4
		c-2.7,0-4.1-1.3-5.2-2.4c-1-0.9-1.7-1.6-3.2-1.6c-1.5,0-2.2,0.7-3.2,1.6c-1.1,1.1-2.5,2.4-5.2,2.4c-2.7,0-4.1-1.3-5.2-2.4
		C2.2,12.7,1.5,12,0,12V9c2.7,0,4.1,1.3,5.2,2.4c1,0.9,1.7,1.6,3.2,1.6c1.5,0,2.2-0.7,3.2-1.6c1.1-1.1,2.5-2.4,5.2-2.4
		c2.7,0,4.1,1.3,5.2,2.4c1,0.9,1.7,1.6,3.2,1.6c1.5,0,2.2-0.7,3.2-1.6c1.1-1.1,2.5-2.4,5.2-2.4c2.7,0,4.1,1.3,5.2,2.4
		c1,0.9,1.7,1.6,3.2,1.6V16z"/>
</g>
<g>
	<path fill="#8DC63F" d="M42,25c-2.7,0-4.1-1.3-5.2-2.4c-1-0.9-1.7-1.6-3.2-1.6c-1.5,0-2.2,0.7-3.2,1.6c-1.1,1.1-2.5,2.4-5.2,2.4
		c-2.7,0-4.1-1.3-5.2-2.4c-1-0.9-1.7-1.6-3.2-1.6c-1.5,0-2.2,0.7-3.2,1.6c-1.1,1.1-2.5,2.4-5.2,2.4c-2.7,0-4.1-1.3-5.2-2.4
		C2.2,21.7,1.5,21,0,21v-3c2.7,0,4.1,1.3,5.2,2.4c1,0.9,1.7,1.6,3.2,1.6c1.5,0,2.2-0.7,3.2-1.6c1.1-1.1,2.5-2.4,5.2-2.4
		c2.7,0,4.1,1.3,5.2,2.4c1,0.9,1.7,1.6,3.2,1.6c1.5,0,2.2-0.7,3.2-1.6c1.1-1.1,2.5-2.4,5.2-2.4c2.7,0,4.1,1.3,5.2,2.4
		c1,0.9,1.7,1.6,3.2,1.6V25z"/>
</g>
</svg>
