<?xml version="1.0" encoding="utf-8"?>
<!-- Generator: Adobe Illustrator 18.0.0, SVG Export Plug-In . SVG Version: 6.00 Build 0)  -->
<!DOCTYPE svg PUBLIC "-//W3C//DTD SVG 1.1//EN" "http://www.w3.org/Graphics/SVG/1.1/DTD/svg11.dtd">
<svg version="1.1" id="Layer_1" xmlns="http://www.w3.org/2000/svg" xmlns:xlink="http://www.w3.org/1999/xlink" x="0px" y="0px"
	 viewBox="0 0 32 32" enable-background="new 0 0 32 32" xml:space="preserve">
<circle fill="#8DC63F" cx="16" cy="16" r="16"/>
<g>
	<path fill="#FFFFFF" d="M19.3,21.3c0.1,0.1,0.1,0.1,0.1,0.3s-0.1,0.3-0.2,0.3c-1.1,1-2.3,1.1-3,1.1c-0.9,0-2.1-0.2-3-1.1
		c-1-1-1.5-2.7-1.5-4.2h-1.3c-0.2,0-0.3-0.1-0.3-0.2c0,0,0-0.1,0-0.1l0.3-0.7c0.1-0.2,0.1-0.3,0.4-0.3h0.7v-0.9h-1
		c-0.1,0-0.3,0-0.3-0.1c0,0,0-0.1,0-0.1l0.3-0.7c0.1-0.2,0.1-0.3,0.4-0.3h0.6c0.2-1.9,1.1-5.4,4.6-5.4c1.5,0,2.5,0.7,3.1,1.2
		l0.1,0.1c0.1,0.1,0.1,0.1,0.1,0.2c0,0,0,0.1,0,0.1l-0.7,1.1c0,0.1-0.1,0.1-0.2,0.1c-0.1,0-0.2,0-0.2-0.1l-0.1-0.1
		c-0.5-0.4-1.2-0.9-2-0.9c-2.1,0-2.3,2.6-2.4,3.5h3.5c0.1,0,0.3,0,0.3,0.2c0,0,0,0.1,0,0.2l-0.3,0.7c-0.1,0.2-0.1,0.2-0.3,0.2h-3.1
		v0.9h2.7c0.2,0,0.3,0.1,0.3,0.2c0,0,0,0.1,0,0.1l-0.3,0.7c-0.1,0.3-0.2,0.3-0.4,0.3h-2.1v0.1c0,1.8,0.8,3.5,2.4,3.5
		c0.6,0,1.2-0.3,1.9-0.8c0.1,0,0.2-0.1,0.3-0.1c0.1,0,0.1,0,0.2,0.1L19.3,21.3z"/>
</g>
</svg>
