<?xml version="1.0" encoding="utf-8"?>
<!-- Generator: Adobe Illustrator 18.0.0, SVG Export Plug-In . SVG Version: 6.00 Build 0)  -->
<!DOCTYPE svg PUBLIC "-//W3C//DTD SVG 1.1//EN" "http://www.w3.org/Graphics/SVG/1.1/DTD/svg11.dtd">
<svg version="1.1" id="Layer_1" xmlns="http://www.w3.org/2000/svg" xmlns:xlink="http://www.w3.org/1999/xlink" x="0px" y="0px"
	 viewBox="0 0 40.2 28" enable-background="new 0 0 40.2 28" xml:space="preserve">
<g>
	<path fill="#8DC63F" d="M9.1,5.7c3.2,5.5,6.1,11.2,6.1,13.2c0,3.4-2.7,6.1-6.1,6.1C5.7,25,3,22.3,3,18.9C3,16.9,5.8,11.1,9.1,5.7
		 M9.1,0C9.1,0,0,13.9,0,18.9c0,5,4.1,9.1,9.1,9.1c5,0,9.1-4.1,9.1-9.1C18.2,13.9,9.1,0,9.1,0L9.1,0z"/>
</g>
<g>
	<path fill="#8DC63F" d="M40.2,18.9c0,5-4.1,9.1-9.1,9.1c-5,0-9.1-4.1-9.1-9.1c0-5,9.1-18.9,9.1-18.9S40.2,13.9,40.2,18.9z"/>
</g>
</svg>
