<?xml version="1.0" encoding="utf-8"?>
<!DOCTYPE svg PUBLIC "-//W3C//DTD SVG 1.1 Tiny//EN" "http://www.w3.org/Graphics/SVG/1.1/DTD/svg11-tiny.dtd">
<svg version="1.1" baseProfile="tiny" id="Layer_1" xmlns="http://www.w3.org/2000/svg" xmlns:xlink="http://www.w3.org/1999/xlink"
	 x="0px" y="0px" width="38px" height="66px" viewBox="0 0 38 66" xml:space="preserve">
<g>
	<polygon fill="none" points="30.713,62.81 18.902,23.704 7.091,62.81 18.902,50.528 	"/>
	<path fill="#626967" d="M6.373,64.999l12.53-13.027l12.529,13.027l0.839-0.491L18.902,20.245L5.534,64.508L6.373,64.999z
		 M18.902,23.704L30.713,62.81L18.902,50.528L7.091,62.81L18.902,23.704z"/>
	<path fill="#626967" d="M18.902,1C9.031,1,1,9.031,1,18.902c0,5.797,2.828,11.261,7.564,14.617l0.578-0.816
		C4.67,29.535,2,24.375,2,18.902C2,9.583,9.583,2,18.902,2c9.32,0,16.902,7.583,16.902,16.902c0,5.475-2.672,10.636-7.148,13.805
		l0.578,0.816c4.74-3.356,7.57-8.822,7.57-14.621C36.805,9.031,28.773,1,18.902,1z"/>
	<path fill="#626967" d="M24.309,28.846l0.578,0.816c2.745-1.943,4.384-5.108,4.384-8.467c0-5.718-4.651-10.369-10.368-10.369
		c-5.718,0-10.369,4.651-10.369,10.369c0,3.357,1.638,6.521,4.381,8.465l0.578-0.816c-2.479-1.756-3.959-4.615-3.959-7.648
		c0-5.166,4.203-9.369,9.369-9.369s9.368,4.203,9.368,9.369C28.271,24.23,26.789,27.09,24.309,28.846z"/>
</g>
<polyline fill="none" stroke="#626967" points="15.835,30.846 21.985,35.936 13.667,40.781 25.047,45.143 16.333,53.867 "/>
</svg>
