<?xml version="1.0" encoding="utf-8"?>
<!DOCTYPE svg PUBLIC "-//W3C//DTD SVG 1.1 Tiny//EN" "http://www.w3.org/Graphics/SVG/1.1/DTD/svg11-tiny.dtd">
<svg version="1.1" baseProfile="tiny" id="Layer_1" xmlns="http://www.w3.org/2000/svg" xmlns:xlink="http://www.w3.org/1999/xlink"
	 x="0px" y="0px" width="43px" height="106px" viewBox="0 0 43 106" xml:space="preserve">
<g>
	<path fill="none" d="M21.5,41.472c10.752,0,19.5-8.748,19.5-19.5s-8.748-19.5-19.5-19.5c-10.752,0-19.5,8.748-19.5,19.5
		S10.748,41.472,21.5,41.472z"/>
	<path fill="none" d="M21.5,65C10.748,65,2,73.748,2,84.5S10.748,104,21.5,104C32.252,104,41,95.252,41,84.5S32.252,65,21.5,65z"/>
	<path fill="#FFFFFF" d="M21.5,42.472c11.304,0,20.5-9.196,20.5-20.5s-9.196-20.5-20.5-20.5S1,10.668,1,21.972
		S10.196,42.472,21.5,42.472z M21.5,2.472c10.752,0,19.5,8.748,19.5,19.5s-8.748,19.5-19.5,19.5c-10.752,0-19.5-8.748-19.5-19.5
		S10.748,2.472,21.5,2.472z"/>
	<path fill="#FFFFFF" d="M42,84.5C42,73.196,32.804,64,21.5,64S1,73.196,1,84.5S10.196,105,21.5,105S42,95.804,42,84.5z M21.5,104
		C10.748,104,2,95.252,2,84.5S10.748,65,21.5,65C32.252,65,41,73.748,41,84.5S32.252,104,21.5,104z"/>
</g>
<g>
	<path fill="#FFFFFF" d="M12.667,21.494v-2.147h2.195v2.147h2.123v2.194h-2.123v2.135h-2.195v-2.135h-2.135v-2.194H12.667z"/>
	<path fill="#FFFFFF" d="M21.522,24.732h-3.946v-1.787l3.838-4.714h2.542v4.558h1.091v1.943h-1.091v1.895h-2.435V24.732z
		 M21.522,22.789v-1.751l-1.487,1.751H21.522z"/>
	<path fill="#FFFFFF" d="M29.262,24.732h-3.946v-1.787l3.838-4.714h2.542v4.558h1.092v1.943h-1.092v1.895h-2.435V24.732z
		 M29.262,22.789v-1.751l-1.487,1.751H29.262z"/>
</g>
<g>
	<path fill="#FFFFFF" d="M13.195,84.026v-2.147h2.195v2.147h2.123v2.194H15.39v2.135h-2.195v-2.135H11.06v-2.194H13.195z"/>
	<path fill="#FFFFFF" d="M18.392,88.644v-2.327c0.587,0.348,1.355,0.78,2.422,0.78c0.744,0,1.259-0.312,1.259-0.852
		c0-0.444-0.348-0.828-1.091-0.828c-0.528,0-1.104,0.145-1.403,0.288v-1.547l1.655-1.248h-2.65v-2.146h5.648v1.919l-1.451,1.176
		c0.588,0.228,1.871,0.804,1.871,2.458c0,1.871-1.631,3.011-3.586,3.011C19.783,89.327,19.003,89.016,18.392,88.644z"/>
	<path fill="#FFFFFF" d="M25.28,83.654c0-1.871,1.415-3.059,3.238-3.059c2.291,0,3.515,1.583,3.515,3.934
		c0,2.315-1.14,4.798-4.042,4.798c-0.684,0-1.427-0.096-2.015-0.504v-2.242c0.528,0.384,1.091,0.539,1.703,0.539
		c0.84,0,1.644-0.372,1.764-1.259c-0.359,0.396-0.959,0.587-1.512,0.587C26.443,86.448,25.28,85.441,25.28,83.654z M27.786,83.643
		c0,0.443,0.312,0.899,0.888,0.899c0.359,0,0.779-0.229,0.947-0.588c0-0.911-0.504-1.26-0.924-1.26
		C28.086,82.694,27.786,83.114,27.786,83.643z"/>
</g>
</svg>
