<?xml version="1.0" encoding="utf-8"?>
<!DOCTYPE svg PUBLIC "-//W3C//DTD SVG 1.1 Tiny//EN" "http://www.w3.org/Graphics/SVG/1.1/DTD/svg11-tiny.dtd">
<svg version="1.1" baseProfile="tiny" id="Layer_1" xmlns="http://www.w3.org/2000/svg" xmlns:xlink="http://www.w3.org/1999/xlink"
	 x="0px" y="0px" width="210px" height="102px" viewBox="0 0 210 102" xml:space="preserve">
<g>
	<path fill="none" d="M45.865,8.5c-0.001-0.265-0.093-6.5-6.5-6.5H7.5C7.235,2.001,1,2.093,1,8.5v85c0.001,0.265,0.093,6.5,6.5,6.5
		h31.864c0.266-0.001,6.501-0.094,6.501-6.5V8.5z"/>
	<path fill="#FFFFFF" d="M46.865,93.5v-85c0-0.075-0.086-7.5-7.5-7.5H7.5C7.425,1,0,1.086,0,8.5v85c0,0.075,0.086,7.5,7.5,7.5
		h31.865C39.44,101,46.865,100.914,46.865,93.5z M39.364,100H7.5c-6.407,0-6.499-6.235-6.5-6.5v-85C1,2.093,7.235,2.001,7.5,2
		h31.865c6.407,0,6.499,6.235,6.5,6.5v85C45.865,99.906,39.63,99.999,39.364,100z"/>
</g>
<rect x="3.272" y="14.437" fill="none" stroke="#FFFFFF" width="40.32" height="72.269"/>
<g>
	<path fill="none" d="M23.433,89.854c-2.214,0-4.016,1.802-4.016,4.016c0,2.215,1.802,4.017,4.016,4.017s4.016-1.802,4.016-4.017
		C27.448,91.656,25.647,89.854,23.433,89.854z"/>
	<path fill="#FFFFFF" d="M23.433,88.854c-2.766,0-5.016,2.25-5.016,5.016c0,2.767,2.25,5.017,5.016,5.017
		c2.766,0,5.016-2.25,5.016-5.017C28.448,91.104,26.198,88.854,23.433,88.854z M23.433,97.887c-2.214,0-4.016-1.802-4.016-4.017
		c0-2.214,1.802-4.016,4.016-4.016s4.016,1.802,4.016,4.016C27.448,96.085,25.647,97.887,23.433,97.887z"/>
</g>
<line fill="none" stroke="#FFFFFF" x1="19.076" y1="9.131" x2="27.789" y2="9.131"/>
<g>
	<circle fill="#FFFFFF" cx="23.433" cy="5.621" r="1.29"/>
	<path fill="#FFFFFF" d="M30.236,47.998v-0.916c-1.694,0.104-2.811,1.364-2.811,2.851s1.117,2.754,2.811,2.851v-0.907
		c-1.06-0.104-1.815-0.899-1.815-1.943S29.176,48.094,30.236,47.998z"/>
	<path fill="#FFFFFF" d="M30.477,51.876v0.907c1.686-0.104,2.811-1.364,2.811-2.851s-1.125-2.746-2.811-2.851v0.916
		c1.052,0.104,1.815,0.898,1.815,1.935C32.292,50.977,31.529,51.771,30.477,51.876z"/>
	<path fill="#FFFFFF" d="M40.329,50.086h-0.996c-0.096,1.036-0.859,1.798-1.927,1.798c-1.076,0-1.831-0.762-1.927-1.798h-0.996
		c0.096,1.477,1.212,2.706,2.923,2.706c0.337,0,0.65-0.049,0.94-0.146l1.325,1.422h0.481l0.53-0.587l-1.566-1.212
		C39.831,51.771,40.265,50.992,40.329,50.086z"/>
	<path fill="#FFFFFF" d="M37.406,47.981c1.068,0,1.831,0.859,1.927,1.887h0.996c-0.104-1.478-1.221-2.795-2.923-2.795
		c-1.711,0-2.827,1.317-2.923,2.795h0.996C35.575,48.841,36.33,47.981,37.406,47.981z"/>
	<polygon fill="#FFFFFF" points="7.226,47.122 6.672,47.122 6.182,47.436 6.263,52.743 7.226,52.743 	"/>
	<polygon fill="#FFFFFF" points="22.633,47.436 22.713,52.743 23.717,52.743 23.717,47.122 23.122,47.122 	"/>
	<polygon fill="#FFFFFF" points="23.958,52.743 27.13,52.743 27.13,52.068 26.76,51.756 23.958,51.899 	"/>
	<polygon fill="#FFFFFF" points="14.235,47.122 13.641,47.122 13.151,47.436 13.232,52.743 14.235,52.743 	"/>
	<path fill="#FFFFFF" d="M8.053,51.844H7.475v0.899h0.554c1.655,0,3.542-0.458,3.558-2.811c-0.016-2.361-1.903-2.811-3.558-2.811
		H7.475v0.899h0.578c1.268,0,2.527,0.376,2.529,1.907C10.58,51.459,9.321,51.844,8.053,51.844z"/>
	<polygon fill="#FFFFFF" points="21.389,52.743 18.908,47.122 18.362,47.122 17.856,47.451 15.495,52.743 16.507,52.743 
		18.378,48.479 20.209,52.743 	"/>
	<polygon fill="#FFFFFF" points="17.173,51.779 19.558,51.779 19.285,51.081 17.519,50.969 	"/>
</g>
<rect x="74.06" y="9" fill="none" stroke="#FFFFFF" width="18" height="4"/>
<line fill="none" stroke="#FFFFFF" x1="73.561" y1="19.1" x2="92.561" y2="19.1"/>
<line fill="none" stroke="#FFFFFF" x1="96.56" y1="19.1" x2="99.56" y2="19.1"/>
<line fill="none" stroke="#FFFFFF" x1="73.561" y1="24.199" x2="92.561" y2="24.199"/>
<line fill="none" stroke="#FFFFFF" x1="96.56" y1="24.199" x2="99.56" y2="24.199"/>
<line fill="none" stroke="#FFFFFF" x1="73.561" y1="29.3" x2="92.561" y2="29.3"/>
<line fill="none" stroke="#FFFFFF" x1="73.561" y1="34.399" x2="92.561" y2="34.399"/>
<line fill="none" stroke="#FFFFFF" x1="73.561" y1="44.499" x2="92.561" y2="44.499"/>
<line fill="none" stroke="#FFFFFF" x1="96.56" y1="29.3" x2="99.56" y2="29.3"/>
<line fill="none" stroke="#FFFFFF" x1="96.56" y1="34.399" x2="99.56" y2="34.399"/>
<line fill="none" stroke="#FFFFFF" x1="96.56" y1="44.499" x2="99.56" y2="44.499"/>
<g>
	<rect x="69.06" y="2" fill="none" width="35" height="48"/>
	<polygon fill="none" points="68.938,72.98 68.938,98.999 108.967,98.999 108.967,82.137 99.775,72.98 	"/>
	<path fill="#FFFFFF" d="M105.06,51V1h-37v50H105.06z M69.06,2h35v48h-35V2z"/>
	<path fill="#FFFFFF" d="M67.938,71.98v28.019h42.028V81.721l-9.779-9.74H67.938z M108.967,98.999H68.938V72.98h30.836l9.192,9.156
		V98.999z"/>
</g>
<rect x="73.341" y="77.384" fill="none" stroke="#FFFFFF" width="18.613" height="14.41"/>
<line fill="none" stroke="#FFFFFF" x1="82.693" y1="77.443" x2="82.693" y2="91.943"/>
<line fill="none" stroke="#FFFFFF" x1="86.327" y1="91.943" x2="86.327" y2="80.596"/>
<line fill="none" stroke="#FFFFFF" x1="82.998" y1="88.414" x2="76.897" y2="88.414"/>
<line fill="none" stroke="#FFFFFF" x1="86.308" y1="81.001" x2="92.409" y2="81.001"/>
<line fill="none" stroke="#FFFFFF" x1="82.998" y1="84.95" x2="76.897" y2="84.95"/>
<line fill="none" stroke="#FFFFFF" x1="86.308" y1="84.465" x2="92.409" y2="84.465"/>
<line fill="none" stroke="#FFFFFF" x1="82.998" y1="81.486" x2="76.897" y2="81.486"/>
<line fill="none" stroke="#FFFFFF" x1="86.308" y1="87.929" x2="92.409" y2="87.929"/>
<g>
	<path fill="none" d="M132.754,56.775c0,2.692,2.19,4.883,4.882,4.883s4.882-2.19,4.882-4.883c0-2.691-2.19-4.882-4.882-4.882
		S132.754,54.084,132.754,56.775z"/>
	<path fill="none" d="M162.513,56.775c0,2.692,2.19,4.883,4.882,4.883c2.692,0,4.883-2.19,4.883-4.883
		c0-2.691-2.19-4.882-4.883-4.882C164.703,51.894,162.513,54.084,162.513,56.775z"/>
	<path fill="none" d="M172.277,24.671c0-2.692-2.19-4.882-4.883-4.882c-2.691,0-4.882,2.19-4.882,4.882
		c0,2.692,2.19,4.883,4.882,4.883C170.087,29.554,172.277,27.363,172.277,24.671z"/>
	<path fill="none" d="M167.395,65.227c-5.554,0-10.103,4.34-10.367,9.772h20.735C177.498,69.566,172.948,65.227,167.395,65.227z"/>
	<path fill="none" d="M177.763,42.895c-0.265-5.433-4.814-9.772-10.368-9.772s-10.103,4.339-10.367,9.772H177.763z"/>
	<path fill="none" d="M137.636,65.227c-5.554,0-10.104,4.34-10.368,9.772h20.735C147.738,69.566,143.189,65.227,137.636,65.227z"/>
	<path fill="none" d="M142.518,24.671c0-2.692-2.19-4.882-4.882-4.882s-4.882,2.19-4.882,4.882c0,2.692,2.19,4.883,4.882,4.883
		S142.518,27.363,142.518,24.671z"/>
	<path fill="none" d="M148.003,42.895c-0.265-5.433-4.813-9.772-10.367-9.772s-10.104,4.339-10.368,9.772H148.003z"/>
	<path fill="none" d="M197.154,33.122c-5.554,0-10.104,4.339-10.368,9.772h20.735C207.257,37.461,202.708,33.122,197.154,33.122z"/>
	<path fill="none" d="M202.036,24.671c0-2.692-2.19-4.882-4.882-4.882s-4.882,2.19-4.882,4.882c0,2.692,2.19,4.883,4.882,4.883
		S202.036,27.363,202.036,24.671z"/>
	<path fill="none" d="M207.521,74.999c-0.265-5.433-4.813-9.772-10.367-9.772s-10.104,4.34-10.368,9.772H207.521z"/>
	<path fill="none" d="M202.036,56.775c0-2.691-2.19-4.882-4.882-4.882s-4.882,2.19-4.882,4.882c0,2.692,2.19,4.883,4.882,4.883
		S202.036,59.468,202.036,56.775z"/>
	<path fill="#FFFFFF" d="M126.256,43.395v0.5h22.759v-0.5c0-6.216-5.104-11.272-11.379-11.272S126.256,37.179,126.256,43.395z
		 M137.636,33.122c5.554,0,10.103,4.339,10.367,9.772h-20.735C127.532,37.461,132.082,33.122,137.636,33.122z"/>
	<path fill="#FFFFFF" d="M126.256,75.999h22.759v-0.5c0-6.216-5.104-11.272-11.379-11.272s-11.38,5.057-11.38,11.272V75.999z
		 M137.636,65.227c5.554,0,10.103,4.34,10.367,9.772h-20.735C127.532,69.566,132.082,65.227,137.636,65.227z"/>
	<path fill="#FFFFFF" d="M156.016,43.395v0.5h22.759v-0.5c0-6.216-5.105-11.272-11.38-11.272S156.016,37.179,156.016,43.395z
		 M167.395,33.122c5.554,0,10.104,4.339,10.368,9.772h-20.735C157.292,37.461,161.841,33.122,167.395,33.122z"/>
	<path fill="#FFFFFF" d="M156.016,75.999h22.759v-0.5c0-6.216-5.105-11.272-11.38-11.272s-11.379,5.057-11.379,11.272V75.999z
		 M167.395,65.227c5.554,0,10.104,4.34,10.368,9.772h-20.735C157.292,69.566,161.841,65.227,167.395,65.227z"/>
	<path fill="#FFFFFF" d="M197.154,32.122c-6.274,0-11.38,5.057-11.38,11.272v0.5h22.759v-0.5
		C208.533,37.179,203.429,32.122,197.154,32.122z M186.786,42.895c0.265-5.433,4.814-9.772,10.368-9.772s10.103,4.339,10.367,9.772
		H186.786z"/>
	<path fill="#FFFFFF" d="M185.774,75.499v0.5h22.759v-0.5c0-6.216-5.104-11.272-11.379-11.272S185.774,69.283,185.774,75.499z
		 M197.154,65.227c5.554,0,10.103,4.34,10.367,9.772h-20.735C187.051,69.566,191.601,65.227,197.154,65.227z"/>
	<path fill="#FFFFFF" d="M143.518,24.671c0-3.243-2.639-5.882-5.882-5.882s-5.882,2.639-5.882,5.882
		c0,3.244,2.639,5.883,5.882,5.883S143.518,27.915,143.518,24.671z M132.754,24.671c0-2.692,2.19-4.882,4.882-4.882
		s4.882,2.19,4.882,4.882c0,2.692-2.19,4.883-4.882,4.883S132.754,27.363,132.754,24.671z"/>
	<path fill="#FFFFFF" d="M131.754,56.775c0,3.244,2.639,5.883,5.882,5.883s5.882-2.639,5.882-5.883c0-3.243-2.639-5.882-5.882-5.882
		S131.754,53.532,131.754,56.775z M142.518,56.775c0,2.692-2.19,4.883-4.882,4.883s-4.882-2.19-4.882-4.883
		c0-2.691,2.19-4.882,4.882-4.882S142.518,54.084,142.518,56.775z"/>
	<path fill="#FFFFFF" d="M173.277,24.671c0-3.243-2.639-5.882-5.883-5.882c-3.243,0-5.882,2.639-5.882,5.882
		c0,3.244,2.639,5.883,5.882,5.883C170.639,30.554,173.277,27.915,173.277,24.671z M162.513,24.671c0-2.692,2.19-4.882,4.882-4.882
		c2.692,0,4.883,2.19,4.883,4.882c0,2.692-2.19,4.883-4.883,4.883C164.703,29.554,162.513,27.363,162.513,24.671z"/>
	<path fill="#FFFFFF" d="M161.513,56.775c0,3.244,2.639,5.883,5.882,5.883c3.244,0,5.883-2.639,5.883-5.883
		c0-3.243-2.639-5.882-5.883-5.882C164.151,50.894,161.513,53.532,161.513,56.775z M172.277,56.775c0,2.692-2.19,4.883-4.883,4.883
		c-2.691,0-4.882-2.19-4.882-4.883c0-2.691,2.19-4.882,4.882-4.882C170.087,51.894,172.277,54.084,172.277,56.775z"/>
	<path fill="#FFFFFF" d="M203.036,24.671c0-3.243-2.639-5.882-5.882-5.882s-5.882,2.639-5.882,5.882
		c0,3.244,2.639,5.883,5.882,5.883S203.036,27.915,203.036,24.671z M192.272,24.671c0-2.692,2.19-4.882,4.882-4.882
		s4.882,2.19,4.882,4.882c0,2.692-2.19,4.883-4.882,4.883S192.272,27.363,192.272,24.671z"/>
	<path fill="#FFFFFF" d="M203.036,56.775c0-3.243-2.639-5.882-5.882-5.882s-5.882,2.639-5.882,5.882
		c0,3.244,2.639,5.883,5.882,5.883S203.036,60.02,203.036,56.775z M192.272,56.775c0-2.691,2.19-4.882,4.882-4.882
		s4.882,2.19,4.882,4.882c0,2.692-2.19,4.883-4.882,4.883S192.272,59.468,192.272,56.775z"/>
</g>
<polygon fill="#FFFFFF" points="137.754,39.337 138.932,38.158 138.135,32.787 137.139,32.775 136.471,38.055 "/>
<polygon fill="#FFFFFF" points="137.754,71.442 138.932,70.264 138.135,64.893 137.139,64.881 136.471,70.159 "/>
<polygon fill="#FFFFFF" points="167.513,39.337 168.691,38.158 167.893,32.787 166.897,32.776 166.229,38.055 "/>
<polygon fill="#FFFFFF" points="167.513,71.442 168.691,70.264 167.893,64.893 166.897,64.882 166.229,70.159 "/>
<polygon fill="#FFFFFF" points="197.271,39.337 198.451,38.158 197.652,32.787 196.657,32.775 195.988,38.055 "/>
<polygon fill="#FFFFFF" points="197.271,71.442 198.451,70.264 197.652,64.893 196.657,64.881 195.988,70.159 "/>
<polyline fill="none" stroke="#FFFFFF" points="132.293,34.378 137.636,39.251 142.978,34.378 "/>
<polyline fill="none" stroke="#FFFFFF" points="132.293,66.482 137.636,71.355 142.978,66.482 "/>
<polyline fill="none" stroke="#FFFFFF" points="162.053,34.378 167.396,39.251 172.737,34.378 "/>
<polyline fill="none" stroke="#FFFFFF" points="162.053,66.483 167.396,71.356 172.737,66.483 "/>
<polyline fill="none" stroke="#FFFFFF" points="191.812,34.378 197.154,39.251 202.496,34.378 "/>
<polyline fill="none" stroke="#FFFFFF" points="191.812,66.482 197.154,71.355 202.496,66.482 "/>
</svg>
