<?xml version="1.0" encoding="utf-8"?>
<!DOCTYPE svg PUBLIC "-//W3C//DTD SVG 1.1 Tiny//EN" "http://www.w3.org/Graphics/SVG/1.1/DTD/svg11-tiny.dtd">
<svg version="1.1" baseProfile="tiny" id="Layer_1" xmlns="http://www.w3.org/2000/svg" xmlns:xlink="http://www.w3.org/1999/xlink"
	 x="0px" y="0px" width="34px" height="34px" viewBox="0 0 34 34" xml:space="preserve">
<g>
	<path fill="none" d="M18.593,11.558c0-1.104,0.981-1.104,0.981-1.104h2.318V6.76h-3.74c-3.36,0.031-3.48,3.954-3.48,3.954v3.115
		h-2.621v3.763h2.564v8.368h4.035v-8.303h2.896l0.403-3.763h-3.356V11.558z"/>
	<path fill="#FFFFFF" d="M1,1v32h32V1H1z M21.546,17.657H18.65v8.303h-4.035v-8.368h-2.564v-3.763h2.621v-3.115
		c0,0,0.12-3.923,3.48-3.954h3.74v3.694h-2.318c0,0-0.981,0-0.981,1.104v2.337h3.356L21.546,17.657z"/>
</g>
</svg>
