<?xml version="1.0" encoding="utf-8"?>
<!DOCTYPE svg PUBLIC "-//W3C//DTD SVG 1.1 Tiny//EN" "http://www.w3.org/Graphics/SVG/1.1/DTD/svg11-tiny.dtd">
<svg version="1.1" baseProfile="tiny" id="Layer_1" xmlns="http://www.w3.org/2000/svg" xmlns:xlink="http://www.w3.org/1999/xlink"
	 x="0px" y="0px" width="32px" height="33px" viewBox="0 0 32 33" xml:space="preserve">
<g>
	<path fill="none" d="M25.096,22.006c2.138-0.241,4.404-1.973,4.404-4.159s-2.267-3.918-4.404-4.159V22.006z"/>
	<path fill="none" d="M6.076,22.008v-8.32C3.854,13.932,2,15.771,2,17.848C2,19.925,3.854,21.764,6.076,22.008z"/>
	<path fill="#FFFFFF" d="M15.724,2.819c5.821,0,10.592,4.529,11.003,10.247c0.354,0.134,0.696,0.299,1.024,0.492
		C27.588,7.059,22.263,1.819,15.724,1.819c-6.505,0-11.808,5.187-12.022,11.641c0.323-0.19,0.666-0.35,1.024-0.475
		C5.176,7.305,9.931,2.819,15.724,2.819z"/>
	<path fill="#FFFFFF" d="M13.552,30.014c-0.011-0.09-0.027-0.179-0.027-0.271c0-0.259,0.053-0.504,0.134-0.736
		c-5.999-0.335-8.681-2.24-8.949-6.301c-0.355-0.126-0.696-0.285-1.017-0.475C3.81,28.271,8.441,29.744,13.552,30.014z"/>
	<path fill="#FFFFFF" d="M3.693,22.23c0.321,0.189,0.662,0.349,1.017,0.475c0.59,0.209,1.218,0.33,1.866,0.33h0.5V12.66h-0.5
		c-0.643,0-1.265,0.119-1.851,0.325C4.367,13.11,4.025,13.27,3.702,13.46C2.109,14.396,1,16.047,1,17.848
		C1,19.645,2.105,21.294,3.693,22.23z M6.076,13.688v8.32C3.854,21.764,2,19.925,2,17.848C2,15.771,3.854,13.932,6.076,13.688z"/>
	<path fill="#FFFFFF" d="M24.596,12.659h-0.5v10.375h0.5c2.588,0,5.456-1.914,5.854-4.563v-1.248
		c-0.233-1.556-1.316-2.855-2.697-3.665c-0.328-0.192-0.671-0.358-1.024-0.492C26.033,12.804,25.304,12.659,24.596,12.659z
		 M29.5,17.847c0,2.187-2.267,3.918-4.404,4.159v-8.318C27.233,13.928,29.5,15.66,29.5,17.847z"/>
	<circle fill="#FFFFFF" cx="15.783" cy="29.742" r="1.258"/>
	<path fill="#FFFFFF" d="M13.552,30.014c0.136,1.113,1.074,1.981,2.221,1.986h0.02c1.24-0.006,2.248-1.016,2.248-2.258
		c0-1.245-1.013-2.258-2.258-2.258c-0.986,0-1.817,0.639-2.125,1.521c-0.081,0.232-0.134,0.478-0.134,0.736
		C13.525,29.835,13.542,29.924,13.552,30.014z M15.783,28.484c0.693,0,1.258,0.564,1.258,1.258c0,0.694-0.564,1.259-1.258,1.259
		c-0.694,0-1.258-0.564-1.258-1.259C14.525,29.049,15.089,28.484,15.783,28.484z"/>
</g>
</svg>
