<?xml version="1.0" encoding="utf-8"?>
<!DOCTYPE svg PUBLIC "-//W3C//DTD SVG 1.1 Tiny//EN" "http://www.w3.org/Graphics/SVG/1.1/DTD/svg11-tiny.dtd">
<svg version="1.1" baseProfile="tiny" id="Layer_1" xmlns="http://www.w3.org/2000/svg" xmlns:xlink="http://www.w3.org/1999/xlink"
	 x="0px" y="0px" width="23px" height="44.25px" viewBox="0 0 23 44.25" xml:space="preserve">
<path fill="#626967" d="M11.362,33.232C6.2,33.232,2,29.032,2,23.87H1c0,5.714,4.648,10.362,10.362,10.362
	c5.714,0,10.363-4.648,10.363-10.362h-1C20.725,29.032,16.524,33.232,11.362,33.232z"/>
<path fill="none" stroke="#626967" d="M17.682,11.649"/>
<g>
	<path fill="none" d="M6.07,24.558c-0.001,0.045-0.082,2.064,1.16,3.366c0.717,0.753,1.754,1.134,3.082,1.134h2.099
		c0.184-0.001,4.501-0.07,4.501-4.5V6.658c-0.001-0.183-0.07-4.5-4.5-4.5h-2.1C10.14,2.159,6.07,2.23,6.07,6.658V24.558z
		 M9.587,23.697c-0.552,0-1-0.447-1-1s0.448-1,1-1c0.552,0,1,0.447,1,1S10.139,23.697,9.587,23.697z M12.137,16.682
		c0-0.553,0.448-1,1-1c0.553,0,1,0.447,1,1s-0.447,1-1,1C12.585,17.682,12.137,17.234,12.137,16.682z M12.362,19.689
		c0,0.553-0.448,1-1,1c-0.552,0-1-0.447-1-1s0.448-1,1-1C11.914,18.689,12.362,19.137,12.362,19.689z M12.137,10.666
		c0-0.553,0.448-1,1-1c0.553,0,1,0.447,1,1s-0.447,1-1,1C12.585,11.666,12.137,11.219,12.137,10.666z M12.362,13.674
		c0,0.553-0.448,1-1,1c-0.552,0-1-0.447-1-1s0.448-1,1-1C11.914,12.674,12.362,13.121,12.362,13.674z M9.587,11.666
		c-0.552,0-1-0.447-1-1s0.448-1,1-1c0.552,0,1,0.447,1,1S10.139,11.666,9.587,11.666z M10.587,16.682c0,0.553-0.448,1-1,1
		c-0.552,0-1-0.447-1-1s0.448-1,1-1C10.139,15.682,10.587,16.129,10.587,16.682z M11.362,26.705c-0.552,0-1-0.447-1-1s0.448-1,1-1
		c0.552,0,1,0.447,1,1S11.914,26.705,11.362,26.705z M12.137,22.697c0-0.553,0.448-1,1-1c0.553,0,1,0.447,1,1s-0.447,1-1,1
		C12.585,23.697,12.137,23.25,12.137,22.697z M14.762,26.705c-0.552,0-1-0.447-1-1s0.448-1,1-1c0.553,0,1,0.447,1,1
		S15.314,26.705,14.762,26.705z M14.762,20.689c-0.552,0-1-0.447-1-1s0.448-1,1-1c0.553,0,1,0.447,1,1S15.314,20.689,14.762,20.689z
		 M14.762,14.674c-0.552,0-1-0.447-1-1s0.448-1,1-1c0.553,0,1,0.447,1,1S15.314,14.674,14.762,14.674z M15.762,7.658
		c0,0.553-0.447,1-1,1c-0.552,0-1-0.447-1-1s0.448-1,1-1C15.314,6.658,15.762,7.105,15.762,7.658z M13.137,3.65c0.553,0,1,0.447,1,1
		s-0.447,1-1,1c-0.552,0-1-0.447-1-1S12.585,3.65,13.137,3.65z M11.362,6.658c0.552,0,1,0.447,1,1s-0.448,1-1,1
		c-0.552,0-1-0.447-1-1S10.81,6.658,11.362,6.658z M9.587,3.65c0.552,0,1,0.447,1,1s-0.448,1-1,1c-0.552,0-1-0.447-1-1
		S9.035,3.65,9.587,3.65z M7.962,6.658c0.552,0,1,0.447,1,1s-0.448,1-1,1c-0.552,0-1-0.447-1-1S7.41,6.658,7.962,6.658z
		 M7.962,12.674c0.552,0,1,0.447,1,1s-0.448,1-1,1c-0.552,0-1-0.447-1-1S7.41,12.674,7.962,12.674z M7.962,18.689
		c0.552,0,1,0.447,1,1s-0.448,1-1,1c-0.552,0-1-0.447-1-1S7.41,18.689,7.962,18.689z M7.962,24.705c0.552,0,1,0.447,1,1
		s-0.448,1-1,1c-0.552,0-1-0.447-1-1S7.41,24.705,7.962,24.705z"/>
	<rect x="5.312" y="42.25" fill="#626967" width="12.1" height="1"/>
	<path fill="#626967" d="M5.07,6.658l0,17.874c-0.005,0.1-0.108,2.457,1.429,4.075c0.914,0.962,2.196,1.45,3.812,1.45h2.1
		c0.055,0,5.5-0.062,5.5-5.5V6.658c0-0.055-0.062-5.5-5.5-5.5h-2.1C10.26,1.158,5.07,1.221,5.07,6.658z M10.312,2.158h2.1
		c4.43,0,4.499,4.317,4.5,4.5v17.899c0,4.43-4.317,4.499-4.501,4.5h-2.099c-1.328,0-2.365-0.381-3.082-1.134
		c-1.242-1.302-1.161-3.321-1.16-3.366V6.658C6.07,2.23,10.14,2.159,10.312,2.158z"/>
	<circle fill="#626967" cx="7.962" cy="7.658" r="1"/>
	<circle fill="#626967" cx="14.762" cy="7.658" r="1"/>
	<circle fill="#626967" cx="11.362" cy="7.658" r="1"/>
	<circle fill="#626967" cx="7.962" cy="13.674" r="1"/>
	<circle fill="#626967" cx="14.762" cy="13.674" r="1"/>
	<circle fill="#626967" cx="11.362" cy="13.674" r="1"/>
	<circle fill="#626967" cx="7.962" cy="19.689" r="1"/>
	<circle fill="#626967" cx="14.762" cy="19.689" r="1"/>
	<circle fill="#626967" cx="11.362" cy="19.689" r="1"/>
	<circle fill="#626967" cx="7.962" cy="25.705" r="1"/>
	<circle fill="#626967" cx="14.762" cy="25.705" r="1"/>
	<circle fill="#626967" cx="11.362" cy="25.705" r="1"/>
	<circle fill="#626967" cx="9.587" cy="10.666" r="1"/>
	<circle fill="#626967" cx="13.137" cy="10.666" r="1"/>
	<circle fill="#626967" cx="9.587" cy="4.65" r="1"/>
	<circle fill="#626967" cx="13.137" cy="4.65" r="1"/>
	<circle fill="#626967" cx="9.587" cy="16.682" r="1"/>
	<circle fill="#626967" cx="13.137" cy="16.682" r="1"/>
	<circle fill="#626967" cx="9.587" cy="22.697" r="1"/>
	<circle fill="#626967" cx="13.137" cy="22.697" r="1"/>
</g>
<line fill="none" stroke="#626967" stroke-width="3" x1="11.5" y1="34.25" x2="11.5" y2="42.25"/>
</svg>
