<?xml version="1.0" encoding="utf-8"?>
<!DOCTYPE svg PUBLIC "-//W3C//DTD SVG 1.1 Tiny//EN" "http://www.w3.org/Graphics/SVG/1.1/DTD/svg11-tiny.dtd">
<svg version="1.1" baseProfile="tiny" id="Layer_1" xmlns="http://www.w3.org/2000/svg" xmlns:xlink="http://www.w3.org/1999/xlink"
	 x="0px" y="0px" width="48px" height="52px" viewBox="0 0 48 52" xml:space="preserve">
<g>
	<path fill="none" d="M24,6.695c-5.771,0-10.478,4.586-10.7,10.305h21.4C34.479,11.282,29.771,6.695,24,6.695z"/>
	<path fill="none" d="M22.432,34.153l0.271,0.14v6.351h2.51v-6.351l0.271-0.14c1.133-0.584,1.837-1.729,1.837-2.987
		c0-1.86-1.509-3.373-3.363-3.373c-1.854,0-3.362,1.513-3.362,3.373C20.596,32.425,21.299,33.569,22.432,34.153z"/>
	<path fill="none" d="M24,2.686C15.93,2.686,9.333,9.036,8.899,17H12.3C12.522,10.73,17.678,5.695,24,5.695
		C30.322,5.695,35.478,10.73,35.7,17h3.4C38.666,9.036,32.069,2.686,24,2.686z"/>
	<path fill="none" d="M2,50h44V18H2V50z M23.958,26.793c2.406,0,4.363,1.962,4.363,4.373c0,1.531-0.8,2.932-2.107,3.725v6.753h-4.51
		v-6.753c-1.307-0.793-2.107-2.193-2.107-3.725C19.596,28.755,21.552,26.793,23.958,26.793z"/>
	<path fill="#626967" d="M40.143,17.829h-1c0-0.28-0.027-0.553-0.042-0.829h-3.4c0.005,0.14,0.021,0.277,0.021,0.418h-1
		c0-0.141-0.016-0.278-0.021-0.418H13.3c-0.005,0.14-0.021,0.277-0.021,0.418h-1c0-0.141,0.016-0.278,0.021-0.418H8.899
		c-0.015,0.276-0.042,0.549-0.042,0.829h-1c0-0.28,0.028-0.553,0.042-0.829H1v34h46V17h-6.899
		C40.115,17.276,40.143,17.549,40.143,17.829z M46,50H2V18h44V50z"/>
	<path fill="#626967" d="M21.703,34.891v6.753h4.51v-6.753c1.308-0.793,2.107-2.193,2.107-3.725c0-2.411-1.957-4.373-4.363-4.373
		c-2.405,0-4.362,1.962-4.362,4.373C19.596,32.697,20.396,34.098,21.703,34.891z M23.958,27.793c1.854,0,3.363,1.513,3.363,3.373
		c0,1.259-0.704,2.403-1.837,2.987l-0.271,0.14v6.351h-2.51v-6.351l-0.271-0.14c-1.132-0.584-1.836-1.729-1.836-2.987
		C20.596,29.306,22.104,27.793,23.958,27.793z"/>
	<path fill="#626967" d="M8.857,17.829c0-0.28,0.027-0.553,0.042-0.829C9.333,9.036,15.93,2.686,24,2.686
		c8.069,0,14.666,6.351,15.101,14.314c0.015,0.276,0.042,0.549,0.042,0.829h1c0-0.28-0.027-0.553-0.042-0.829
		C39.665,8.485,32.621,1.686,24,1.686C15.378,1.686,8.334,8.485,7.899,17c-0.014,0.276-0.042,0.549-0.042,0.829H8.857z"/>
	<path fill="#626967" d="M24,5.695c-6.322,0-11.477,5.035-11.7,11.305c-0.005,0.14-0.021,0.277-0.021,0.418h1
		c0-0.141,0.016-0.278,0.021-0.418C13.522,11.282,18.229,6.695,24,6.695c5.772,0,10.479,4.586,10.701,10.305
		c0.006,0.14,0.021,0.277,0.021,0.418h1c0-0.141-0.017-0.278-0.021-0.418C35.478,10.73,30.322,5.695,24,5.695z"/>
</g>
<rect x="5.5" y="20.5" fill="none" stroke="#626967" width="37" height="27"/>
</svg>
