<?xml version="1.0" encoding="utf-8"?>
<!DOCTYPE svg PUBLIC "-//W3C//DTD SVG 1.1 Tiny//EN" "http://www.w3.org/Graphics/SVG/1.1/DTD/svg11-tiny.dtd">
<svg version="1.1" baseProfile="tiny" id="Layer_1" xmlns="http://www.w3.org/2000/svg" xmlns:xlink="http://www.w3.org/1999/xlink"
	 x="0px" y="0px" width="34px" height="34px" viewBox="0 0 34 34" xml:space="preserve">
<g>
	<path fill="none" d="M26.268,8.789c-0.809,0.338-1.607,0.685-2.552,0.887c-2.432-2.945-7.843-0.418-6.881,3.66
		c-3.87-0.309-6.345-2.015-8.324-4.217c-1.12,1.967,0.128,4.629,1.219,5.329c-0.75,0.084-1.061-0.271-1.664-0.333
		c0.082,2.25,1.42,3.244,3.107,3.886c-0.365,0.225-1.125,0.055-1.664,0.112c0.508,1.633,1.815,2.475,3.661,2.772
		c-1.269,1.202-3.637,1.789-5.77,1.775c7.612,4.68,18.05-1.08,17.426-10.321c0.635-0.55,1.683-1.273,1.773-1.998
		c-0.521,0.328-1.281,0.421-1.998,0.558C25.262,10.299,25.936,9.714,26.268,8.789z"/>
	<path fill="#FFFFFF" d="M1,1v32h32V1H1z M24.826,12.34C25.45,21.581,15.012,27.341,7.4,22.661c2.133,0.014,4.501-0.573,5.77-1.775
		c-1.846-0.298-3.153-1.14-3.661-2.772c0.539-0.058,1.299,0.112,1.664-0.112c-1.687-0.642-3.025-1.636-3.107-3.886
		c0.603,0.062,0.914,0.417,1.664,0.333c-1.091-0.7-2.339-3.362-1.219-5.329c1.979,2.202,4.454,3.908,8.324,4.217
		c-0.962-4.078,4.449-6.605,6.881-3.66c0.944-0.202,1.743-0.549,2.552-0.887c-0.332,0.925-1.006,1.51-1.666,2.11
		c0.717-0.137,1.477-0.229,1.998-0.558C26.509,11.066,25.461,11.79,24.826,12.34z"/>
</g>
</svg>
